<?xml version="1.0" standalone="no"?><!DOCTYPE svg PUBLIC "-//W3C//DTD SVG 1.1//EN" "http://www.w3.org/Graphics/SVG/1.1/DTD/svg11.dtd"><svg t="1587035419860" class="icon" viewBox="0 0 1024 1024" version="1.1" xmlns="http://www.w3.org/2000/svg" p-id="2128" xmlns:xlink="http://www.w3.org/1999/xlink" width="200" height="200"><defs><style type="text/css"></style></defs><path d="M768 979.2h-512c-70.4 0-128-57.6-128-124.8v-681.6c0-70.4 57.6-128 128-128h512c70.4 0 128 57.6 128 128v681.6c0 67.2-57.6 124.8-128 124.8z m-512-854.4c-25.6 0-48 19.2-48 48v681.6c0 25.6 19.2 44.8 48 44.8h512c25.6 0 48-19.2 48-44.8v-681.6c0-25.6-19.2-48-48-48h-512z" p-id="2129"></path><path d="M249.6 614.4V160h294.4v451.2l-147.2-86.4-147.2 89.6z m144-182.4l70.4 41.6v-233.6h-134.4v230.4l64-38.4z" p-id="2130"></path></svg>