<?xml version="1.0" standalone="no"?><!DOCTYPE svg PUBLIC "-//W3C//DTD SVG 1.1//EN" "http://www.w3.org/Graphics/SVG/1.1/DTD/svg11.dtd"><svg t="1587035471266" class="icon" viewBox="0 0 1024 1024" version="1.1" xmlns="http://www.w3.org/2000/svg" p-id="3632" xmlns:xlink="http://www.w3.org/1999/xlink" width="200" height="200"><defs><style type="text/css"></style></defs><path d="M577.343794 262.853856c0 0 140.113271-45.633362 118.997327-139.956705 0 0-10.17065 22.269212-43.178448 30.129235 0 0-6.225801-57.640849-34.319678-82.530751 0 0-35.642814-23.581092-95.025332 29.655443 0 0-21.137434-34.859984-73.94418-34.859984 0 0-42.238029 32.713085-38.279877 83.805791 0 0-49.666216-19.21157-84.876171 22.713327 0 0 85.778728 58.162736 120.97231 93.14347C447.690769 264.952659 489.435564 242.097092 577.343794 262.853856zM463.362719 546.840029c0 5.328361 2.506079 10.955527 7.530518 16.891732 5.012159 5.936205 14.294579 10.429547 27.833956 13.473886l0-56.850856c-9.714255 0.453325-18.039883 2.966568-24.967673 7.530518C466.831731 532.456423 463.362719 538.771252 463.362719 546.840029zM563.968146 675.731714c-5.732567-5.251613-15.295373-10.462293-28.665905-15.639204l0 67.8115c10.507319-2.129502 19.353809-5.440924 26.52003-9.92915 7.168267-4.491295 10.745749-11.912319 10.745749-22.267165C572.568019 687.64301 569.698666 680.982303 563.968146 675.731714zM834.326937 666.510692c-64.974892-269.183011-147.643789-384.71235-320.613409-384.71235-186.995068 0-253.496735 157.25776-320.632852 374.233684-59.613785 192.573116 131.572749 302.700416 320.632852 302.678926C702.810469 958.687417 881.624196 862.439233 834.326937 666.510692zM632.675039 729.617025c-7.250132 13.167917-18.956766 24.621795-35.126044 34.361633-16.169277 9.744955-36.921948 15.757908-62.246755 18.039883l0 39.954007-36.575047 0 0-39.954007c-15.446823-1.82865-32.369254-5.741777-50.783667-11.7578-18.394971-6.010907-35.247817-13.588497-50.54012-22.718444l0-65.078246c9.877985 7.46298 20.314695 14.347791 31.308084 20.665689 10.997483 6.321992 22.34903 11.568488 34.052594 15.755861 11.706635 4.187373 23.702865 7.0424 35.963109 8.558942l0-76.262994c-29.309565-7.149848-51.695434-15.870472-67.147373-26.141406-15.459102-10.272981-25.771992-21.039196-30.949927-32.308879-5.175888-11.264566-7.764855-22.98041-7.764855-35.160836 0-11.108 2.866284-22.949711 8.598851-35.506714 5.744847-12.560073 16.489573-24.088652 32.271017-34.587784 15.770188-10.507319 37.435648-17.35529 64.991265-20.553126l0-20.094684 36.575047 0 0 20.094684c17.198724 2.134619 33.129571 5.901413 47.786401 11.304475 14.656829 5.403062 30.590746 13.209873 47.790494 23.40099L630.878112 569.443863c-10.993389-8.678669-24.93902-17.464784-41.822566-26.372674-16.880476-8.907889-34.805749-15.409983-53.755352-19.524702l0 62.565003c33.129571 10.658768 59.455173 23.744821 78.972711 39.275554 19.515492 15.52664 29.271703 36.909668 29.271703 64.1542C643.546655 703.092902 639.923124 716.454224 632.675039 729.617025z" p-id="3633"></path></svg>