<?xml version="1.0" standalone="no"?><!DOCTYPE svg PUBLIC "-//W3C//DTD SVG 1.1//EN" "http://www.w3.org/Graphics/SVG/1.1/DTD/svg11.dtd"><svg t="1587035513133" class="icon" viewBox="0 0 1024 1024" version="1.1" xmlns="http://www.w3.org/2000/svg" p-id="4379" xmlns:xlink="http://www.w3.org/1999/xlink" width="200" height="200"><defs><style type="text/css"></style></defs><path d="M908.273279 808.342312l-99.324146 0L808.949132 262.064624c0-27.433816-22.23849-49.662073-49.66719-49.662073-27.428699 0-49.662073 22.228257-49.662073 49.662073l0 546.277688-99.324146 0L610.295723 361.38877c0-27.428699-22.228257-49.662073-49.656957-49.662073s-49.662073 22.233374-49.662073 49.662073l0 446.953541-99.329263 0L411.647431 460.712917c0-27.428699-22.233374-49.662073-49.662073-49.662073s-49.662073 22.233374-49.662073 49.662073l0 347.629395L163.342182 808.342312 163.342182 162.740478c0-27.433816-22.233374-49.662073-49.662073-49.662073s-49.662073 22.228257-49.662073 49.662073L64.018036 858.004385c0 27.428699 22.233374 49.662073 49.662073 49.662073l794.592147 0c27.428699 0 49.662073-22.233374 49.662073-49.662073C957.935352 830.580802 935.700955 808.342312 908.273279 808.342312z" p-id="4380"></path></svg>